<svg xmlns="http://www.w3.org/2000/svg" width="207" height="160" fill="none" viewBox="0 0 207 160"><path fill="url(#a)" d="M76.74 159.102c42.382 0 76.739-31.034 76.739-69.316S119.122 20.47 76.739 20.47 0 51.504 0 89.786s34.357 69.316 76.74 69.316"/><mask id="b" width="148" height="156" x="16" y="0" maskUnits="userSpaceOnUse" style="mask-type:luminance"><path fill="#fff" d="m138.022 139.886-77.924 15.309c-7.112 1.397-14.15-2.619-15.81-9.022L16.947 40.581c-1.02-3.937-.529-8.069 1.392-11.721l2.879-5.473c1.735-3.299 5.088-5.666 9.05-6.387L120.945.475c5.718-1.042 11.327 2.178 12.711 7.298l29.969 110.944c1.204 4.453-.77 9.113-4.955 11.704l-6.17 3.82c-4.377 2.71-9.293 4.627-14.478 5.646z"/></mask><g mask="url(#b)"><path fill="url(#c)" d="M45.6 166.376 6.574 18.571l129.43-24.634 35.145 132.887-23.009 17.89z"/><path fill="url(#d)" d="M151.163 144.29 44.979 164.753 12.098 27.923l10.27-13.36L137.2-5l33.948 131.825z"/><path fill="url(#e)" d="M63.97 134.364 35.273 30.031c-.977-3.553 1.626-7.113 5.725-7.832l76.188-13.34c3.849-.674 7.611 1.418 8.543 4.752l28.693 102.644c.978 3.499-1.524 7.029-5.543 7.822l-76.184 15.03c-3.907.771-7.788-1.338-8.724-4.742z" opacity="0.06"/><path fill="url(#f)" d="M64.323 133.915 35.877 30.323c-.969-3.527 1.61-7.062 5.67-7.775l75.48-13.237c3.813-.668 7.541 1.41 8.465 4.72l28.442 101.914c.969 3.474-1.509 6.979-5.492 7.766l-75.475 14.914c-3.87.765-7.716-1.33-8.644-4.71" opacity="0.12"/><path fill="url(#g)" d="M64.677 133.467 36.48 30.615c-.96-3.501 1.594-7.012 5.615-7.718l74.772-13.131c3.778-.664 7.471 1.4 8.387 4.686l28.192 101.186c.961 3.449-1.493 6.928-5.439 7.709L73.24 138.144c-3.835.759-7.645-1.322-8.564-4.677" opacity="0.18"/><path fill="url(#h)" d="M65.03 133.018 37.082 30.908c-.95-3.478 1.578-6.962 5.562-7.662l74.065-13.028c3.742-.658 7.4 1.391 8.307 4.653l27.941 100.457c.952 3.425-1.478 6.879-5.386 7.653l-74.06 14.681c-3.798.753-7.571-1.313-8.484-4.645z" opacity="0.24"/><path fill="url(#i)" d="M65.382 132.569 37.687 31.199c-.943-3.451 1.562-6.909 5.508-7.605l73.356-12.923c3.707-.653 7.33 1.382 8.23 4.62l27.689 99.729c.944 3.399-1.463 6.827-5.334 7.596l-73.351 14.565c-3.763.746-7.5-1.305-8.404-4.612z" opacity="0.3"/><path fill="url(#j)" d="M65.735 132.12 38.29 31.492c-.935-3.426 1.545-6.859 5.454-7.549l72.648-12.819c3.671-.648 7.26 1.373 8.151 4.588l27.438 99c.936 3.374-1.448 6.777-5.281 7.54L74.057 136.7c-3.726.742-7.428-1.296-8.324-4.578z" opacity="0.36"/><path fill="url(#k)" d="M66.088 131.672 38.894 31.784c-.926-3.401 1.53-6.808 5.399-7.492l71.941-12.715c3.635-.643 7.19 1.363 8.073 4.554l27.189 98.271c.927 3.35-1.433 6.727-5.229 7.483l-71.936 14.332c-3.69.735-7.357-1.286-8.243-4.546z" opacity="0.42"/><path fill="url(#l)" d="M66.44 131.223 39.497 32.076c-.918-3.376 1.513-6.757 5.345-7.436l71.233-12.61c3.599-.637 7.12 1.354 7.994 4.522l26.938 97.541c.919 3.325-1.417 6.677-5.176 7.427l-71.228 14.215c-3.653.73-7.284-1.278-8.162-4.513z" opacity="0.48"/><path fill="url(#m)" d="M66.793 130.774 40.1 32.368c-.909-3.35 1.498-6.706 5.292-7.378l70.525-12.507c3.564-.631 7.05 1.345 7.916 4.49l26.687 96.812c.909 3.3-1.402 6.627-5.124 7.371l-70.52 14.099c-3.616.724-7.212-1.269-8.083-4.481" opacity="0.54"/><path fill="url(#n)" d="M67.146 130.325 40.703 32.661c-.9-3.326 1.48-6.656 5.237-7.323l69.818-12.401c3.527-.627 6.979 1.335 7.837 4.455l26.437 96.084c.901 3.275-1.388 6.576-5.071 7.315L75.15 134.774c-3.581.717-7.14-1.261-8.003-4.448z" opacity="0.6"/><path fill="url(#o)" d="M67.498 129.877 41.307 32.953c-.892-3.3 1.464-6.605 5.183-7.267L115.6 13.39c3.491-.621 6.909 1.326 7.759 4.424l26.186 95.355c.893 3.251-1.373 6.527-5.019 7.258l-69.103 13.867c-3.544.711-7.069-1.253-7.923-4.416z" opacity="0.65"/><path fill="url(#p)" d="M67.853 129.429 41.912 33.245c-.884-3.275 1.449-6.554 5.129-7.21l68.402-12.192c3.455-.616 6.838 1.317 7.68 4.39l25.935 94.627c.883 3.225-1.357 6.475-4.966 7.201l-68.396 13.751c-3.508.705-6.996-1.244-7.842-4.382z" opacity="0.71"/><path fill="url(#q)" d="m68.204 128.98-25.69-95.444c-.875-3.25 1.432-6.502 5.073-7.153l67.694-12.088c3.42-.612 6.768 1.307 7.602 4.357l25.683 93.897c.876 3.201-1.341 6.425-4.913 7.145l-67.688 13.634c-3.472.699-6.924-1.235-7.763-4.35z" opacity="0.77"/><path fill="url(#r)" d="m68.558 128.531-25.44-94.703c-.866-3.224 1.417-6.451 5.02-7.096l66.987-11.985c3.384-.606 6.697 1.299 7.524 4.325l25.433 93.169c.868 3.176-1.326 6.375-4.86 7.089l-66.98 13.517c-3.435.694-6.852-1.226-7.682-4.316z" opacity="0.83"/><path fill="url(#s)" d="m68.557 128.531-25.44-94.703c-.866-3.224 1.417-6.451 5.02-7.096l66.987-11.985c3.384-.606 6.697 1.299 7.524 4.325l25.434 93.169c.867 3.176-1.327 6.375-4.861 7.089l-66.98 13.517c-3.435.694-6.852-1.226-7.682-4.316z"/><path fill="url(#t)" d="m68.557 128.531-25.44-94.703c-.866-3.224 1.417-6.451 5.02-7.096l66.987-11.985c3.384-.606 6.697 1.299 7.524 4.325l25.434 93.169c.867 3.176-1.327 6.375-4.861 7.089l-66.98 13.517c-3.435.694-6.852-1.226-7.682-4.316z"/><path fill="url(#u)" d="M125.641 94.997c19.105-5.475 32.937-14.63 30.893-20.45-2.043-5.818-19.188-6.098-38.294-.623s-32.937 14.63-30.893 20.448c2.043 5.819 19.188 6.099 38.294.624" style="mix-blend-mode:multiply"/></g><path fill="#2976AB" d="M108.584 27.341c.624 2.095 2.988 3.341 5.281 2.782s3.645-2.72 3.02-4.82c-.624-2.1-2.988-3.343-5.279-2.777s-3.644 2.72-3.021 4.815z" opacity="0.3"/><path fill="url(#v)" d="M109.188 26.383c.623 2.095 2.988 3.342 5.281 2.781s3.644-2.72 3.018-4.823c-.625-2.1-2.988-3.343-5.279-2.776s-3.643 2.723-3.02 4.818"/><path fill="#2976AB" d="M97.515 29.582c.624 2.095 2.988 3.341 5.281 2.782s3.644-2.72 3.02-4.82-2.988-3.344-5.279-2.778-3.644 2.721-3.02 4.816z" opacity="0.3"/><path fill="url(#w)" d="M98.118 28.624c.624 2.095 2.988 3.341 5.281 2.78 2.293-.56 3.644-2.72 3.019-4.822-.625-2.1-2.988-3.343-5.279-2.776s-3.643 2.723-3.02 4.818"/><path fill="#2976AB" d="m120.58 120.004-15.935 3.041c-2.213.421-4.49-.89-5.085-2.926s.716-4.031 2.926-4.457l15.92-3.083c2.209-.431 4.488.885 5.089 2.937.602 2.054-.703 4.063-2.915 4.488" opacity="0.5"/><path fill="url(#x)" d="m120.907 119.047-15.932 3.048c-2.213.421-4.489-.89-5.085-2.926-.595-2.036.714-4.032 2.924-4.458l15.918-3.089c2.209-.432 4.487.884 5.089 2.936.602 2.054-.703 4.065-2.914 4.489"/><path fill="#2976AB" d="m56.648 62.792-5.395 1.389-6.066-22.462 5.183-1.147c3.455-.765 6.942 1.145 7.789 4.265l2.979 10.974c.824 3.04-1.16 6.124-4.49 6.98" opacity="0.3"/><path fill="url(#y)" d="m56.294 61.411-5.394 1.39-6.067-22.462 5.183-1.148c3.455-.765 6.942 1.145 7.79 4.265l2.978 10.975c.825 3.039-1.16 6.123-4.49 6.98"/><path fill="#CF8AFF" d="M42.94 18.803c.22 1.47-5.494 2.631-6.796 3.41-4.36 2.438-3.138 7.33-2.5 11.356.296 1.884 1.096 6.894 1.403 8.838.153 1.005 1.564 7.884-2.258 5.13-1.158-.835-1.737-3.976-2.173-5.226a60.3 60.3 0 0 1-2.715-11.05c-.602-4.1.055-8.524 3.968-11.13 2.02-1.345 5.85-2.298 8.319-2.311.923-.005 2.579-.167 2.751.982" opacity="0.5"/><path fill="url(#z)" d="M76.32 52.503c8.186-9.457 18.163-1.923 14.465 8.236-2.595 8.542-10.097 15.257-12.5 23.692-2.177 7.845 2.049 15.306 11.71 10.716 3.274-1.63 5.933-3.987 8.611-6.385a.98.98 0 0 1 1.285.004c1.047.855-2.248 4.725-2.925 5.697-9.942 12.361-26.817 7.342-24.662-8.313.459-3.381 1.882-6.672 3.648-9.602 3.152-6.03 16.54-18.93 10.261-25.142-2.807-2.166-6.572.096-8.835 1.992-.63.554-1.612-.306-1.06-.895z"/><path fill="url(#A)" d="m103.035 91.396-5.165 1c-1.848.358-3.417-1.554-2.502-3.047l2.53-4.128c.733-1.196 2.6-1.233 3.579-.071l2.636 3.127c.995 1.181.425 2.828-1.078 3.12z"/><path fill="url(#B)" d="M206.137 16.33c-1.643-4.158-5.861-7.442-10.171-8.725-6.189-1.84-12.327 1.504-17.751 5.734-19.585 15.273-54.368 42.1-77.935 61.516-1.415 1.166-2.412 2.686-2.615 4.406l-.686 5.822c-.441 3.735 2.633 7.057 6.781 7.327l6.611.43c1.893.124 3.732-.456 5.226-1.514 24.882-17.623 61.671-44.115 82.366-58.662 5.29-3.719 10.643-10.079 8.173-16.334z"/><path fill="url(#C)" d="M206.137 16.33c-1.404-4.191-5.585-7.535-10.171-8.724-6.262-1.624-12.327 1.503-17.751 5.733-19.585 15.274-54.368 42.1-77.935 61.516-1.415 1.166-2.412 2.686-2.615 4.406l-.686 5.822c-.441 3.735 2.633 7.057 6.781 7.327l6.611.43c1.893.124 3.732-.456 5.226-1.514 24.882-17.622 61.671-44.115 82.366-58.662 5.29-3.719 10.302-9.977 8.173-16.334z"/><path fill="url(#D)" d="M125.311 66.977c8.686-6.574 14.117-13.64 12.131-15.781s-10.639 1.452-19.325 8.026-14.117 13.64-12.13 15.78c1.986 2.142 10.638-1.451 19.324-8.025"/><path fill="url(#E)" d="M104.704 68.934c6.045-6.635 13.397-12.544 21.794-17.435 2.093-1.114 4.813-.886 6.003.432l.734.79c1.195 1.321.473 3.291-1.538 4.473-8.352 4.867-15.685 10.7-21.744 17.217-1.458 1.579-3.77 1.648-5.262.11-1.489-1.537-1.527-4.06.012-5.587z"/><defs><linearGradient id="c" x1="25.1323" x2="153.803" y1="93.5497" y2="57.4513" gradientUnits="userSpaceOnUse"><stop offset="0.02" stop-color="#6945A9"/><stop offset="0.09" stop-color="#8B62C2"/><stop offset="0.16" stop-color="#A579D6"/><stop offset="0.21" stop-color="#956AD1"/><stop offset="0.29" stop-color="#865CCC"/><stop offset="0.35" stop-color="#8158CB"/><stop offset="0.58" stop-color="#835ACB"/><stop offset="0.71" stop-color="#8B61CE"/><stop offset="0.82" stop-color="#996ED2"/><stop offset="0.87" stop-color="#A579D6"/><stop offset="0.9" stop-color="#AA7BDB"/><stop offset="0.93" stop-color="#BB82EB"/><stop offset="0.95" stop-color="#CF8AFF"/></linearGradient><linearGradient id="d" x1="74.8831" x2="104.648" y1="4.94288" y2="163.083" gradientUnits="userSpaceOnUse"><stop offset="0.02" stop-color="#CF8AFF"/><stop offset="0.03" stop-color="#CF8AFF"/><stop offset="0.14" stop-color="#CF8AFF"/><stop offset="0.7" stop-color="#BD7EF0"/><stop offset="0.83" stop-color="#BA7CED"/><stop offset="0.84" stop-color="#AB72E1"/><stop offset="0.86" stop-color="#8E5EC8"/><stop offset="0.87" stop-color="#7950B6"/><stop offset="0.89" stop-color="#6D47AB"/><stop offset="0.9" stop-color="#6945A8"/></linearGradient><linearGradient id="e" x1="81.9074" x2="103.539" y1="16.7886" y2="132.246" gradientUnits="userSpaceOnUse"><stop stop-color="#BE80F4"/><stop offset="0.16" stop-color="#B177EA"/><stop offset="0.44" stop-color="#925FD1"/><stop offset="0.82" stop-color="#5E39A9"/><stop offset="1" stop-color="#432594"/></linearGradient><linearGradient id="f" x1="81.9282" x2="103.604" y1="17.163" y2="131.744" gradientUnits="userSpaceOnUse"><stop stop-color="#BB7DF1"/><stop offset="0.16" stop-color="#AE74E7"/><stop offset="0.45" stop-color="#8F5CCE"/><stop offset="0.83" stop-color="#5B37A7"/><stop offset="1" stop-color="#432594"/></linearGradient><linearGradient id="g" x1="81.9515" x2="103.668" y1="17.5382" y2="131.243" gradientUnits="userSpaceOnUse"><stop stop-color="#B77BEF"/><stop offset="0.16" stop-color="#AA72E5"/><stop offset="0.46" stop-color="#8B5ACC"/><stop offset="0.85" stop-color="#5734A4"/><stop offset="1" stop-color="#432594"/></linearGradient><linearGradient id="h" x1="81.9765" x2="103.729" y1="17.9141" y2="130.742" gradientUnits="userSpaceOnUse"><stop stop-color="#B378EC"/><stop offset="0.17" stop-color="#A66FE2"/><stop offset="0.47" stop-color="#8757C9"/><stop offset="0.88" stop-color="#5331A1"/><stop offset="1" stop-color="#432594"/></linearGradient><linearGradient id="i" x1="82.0048" x2="103.791" y1="18.2922" y2="130.243" gradientUnits="userSpaceOnUse"><stop stop-color="#AF76EA"/><stop offset="0.17" stop-color="#A26CE0"/><stop offset="0.49" stop-color="#8355C7"/><stop offset="0.9" stop-color="#4F2E9E"/><stop offset="1" stop-color="#432594"/></linearGradient><linearGradient id="j" x1="82.0332" x2="103.851" y1="18.671" y2="129.746" gradientUnits="userSpaceOnUse"><stop stop-color="#AC73E7"/><stop offset="0.18" stop-color="#A06ADD"/><stop offset="0.5" stop-color="#8052C4"/><stop offset="0.93" stop-color="#4C2C9B"/><stop offset="1" stop-color="#432594"/></linearGradient><linearGradient id="k" x1="82.0633" x2="103.91" y1="19.0515" y2="129.249" gradientUnits="userSpaceOnUse"><stop stop-color="#A871E5"/><stop offset="0.18" stop-color="#9C67DB"/><stop offset="0.51" stop-color="#7C4FC1"/><stop offset="0.95" stop-color="#482998"/><stop offset="1" stop-color="#432594"/></linearGradient><linearGradient id="l" x1="82.0957" x2="103.973" y1="19.4333" y2="128.787" gradientUnits="userSpaceOnUse"><stop stop-color="#A46FE3"/><stop offset="0.19" stop-color="#9865D9"/><stop offset="0.53" stop-color="#784DBF"/><stop offset="0.99" stop-color="#442695"/><stop offset="1" stop-color="#432594"/></linearGradient><linearGradient id="m" x1="82.1323" x2="104.051" y1="19.8176" y2="128.39" gradientUnits="userSpaceOnUse"><stop stop-color="#A16CE0"/><stop offset="0.19" stop-color="#9562D6"/><stop offset="0.54" stop-color="#754ABC"/><stop offset="1" stop-color="#432594"/></linearGradient><linearGradient id="n" x1="82.1685" x2="104.126" y1="20.2038" y2="127.992" gradientUnits="userSpaceOnUse"><stop stop-color="#9D6ADE"/><stop offset="0.2" stop-color="#9060D4"/><stop offset="0.56" stop-color="#7148B9"/><stop offset="1" stop-color="#432594"/></linearGradient><linearGradient id="o" x1="82.2081" x2="104.2" y1="20.5899" y2="127.593" gradientUnits="userSpaceOnUse"><stop stop-color="#9967DB"/><stop offset="0.21" stop-color="#8D5DD1"/><stop offset="0.58" stop-color="#6D45B6"/><stop offset="1" stop-color="#432594"/></linearGradient><linearGradient id="p" x1="82.2506" x2="104.274" y1="20.9781" y2="127.192" gradientUnits="userSpaceOnUse"><stop stop-color="#9565D9"/><stop offset="0.22" stop-color="#895BCE"/><stop offset="0.61" stop-color="#6942B4"/><stop offset="1" stop-color="#432594"/></linearGradient><linearGradient id="q" x1="82.292" x2="104.344" y1="21.3681" y2="126.791" gradientUnits="userSpaceOnUse"><stop stop-color="#9262D6"/><stop offset="0.22" stop-color="#8658CB"/><stop offset="0.62" stop-color="#6640B1"/><stop offset="1" stop-color="#432594"/></linearGradient><linearGradient id="r" x1="82.3377" x2="104.415" y1="21.7579" y2="126.388" gradientUnits="userSpaceOnUse"><stop stop-color="#8E60D4"/><stop offset="0.23" stop-color="#8256C9"/><stop offset="0.65" stop-color="#623DAE"/><stop offset="1" stop-color="#432594"/></linearGradient><linearGradient id="s" x1="84.393" x2="103.276" y1="21.9201" y2="127.493" gradientUnits="userSpaceOnUse"><stop stop-color="#D5EDFD"/><stop offset="0.01" stop-color="#E6F3FC"/><stop offset="0.03" stop-color="#EFF6FB"/><stop offset="0.04" stop-color="#F3F8FB"/><stop offset="0.2" stop-color="#DFEEF8"/><stop offset="0.53" stop-color="#ADD6F1"/><stop offset="0.68" stop-color="#95CBEE"/><stop offset="0.85" stop-color="#87C2EA"/><stop offset="0.93" stop-color="#80BEE8"/><stop offset="0.95" stop-color="#7AB9E4"/><stop offset="0.98" stop-color="#69ACD8"/><stop offset="1" stop-color="#569DCC"/></linearGradient><linearGradient id="t" x1="57.3481" x2="133.525" y1="80.6929" y2="63.2843" gradientUnits="userSpaceOnUse"><stop stop-color="#CFEBFE"/><stop offset="0.16" stop-color="#CFEBFE"/></linearGradient><linearGradient id="x" x1="109.721" x2="112.994" y1="110.93" y2="122.04" gradientUnits="userSpaceOnUse"><stop stop-color="#FDC08D"/><stop offset="1" stop-color="#FB793F"/></linearGradient><linearGradient id="y" x1="59.7933" x2="48.2119" y1="48.6964" y2="52.1158" gradientUnits="userSpaceOnUse"><stop stop-color="#569DCC"/><stop offset="0.05" stop-color="#59A7D7"/><stop offset="0.17" stop-color="#5FBCED"/><stop offset="0.28" stop-color="#63C9FA"/><stop offset="0.38" stop-color="#65CEFF"/><stop offset="0.5" stop-color="#60C8F9"/><stop offset="0.65" stop-color="#54BAE9"/><stop offset="0.82" stop-color="#41A1CF"/><stop offset="1" stop-color="#2680AB"/></linearGradient><linearGradient id="z" x1="72.0777" x2="102.124" y1="74.7844" y2="74.7844" gradientUnits="userSpaceOnUse"><stop stop-color="#FDC08D"/><stop offset="1" stop-color="#FB793F"/></linearGradient><linearGradient id="A" x1="97.3025" x2="101.061" y1="87.1377" y2="91.8178" gradientUnits="userSpaceOnUse"><stop stop-color="#FDC08D"/><stop offset="1" stop-color="#FB793F"/></linearGradient><linearGradient id="B" x1="140.536" x2="160.571" y1="39.9248" y2="66.1456" gradientUnits="userSpaceOnUse"><stop stop-color="#F0592A"/><stop offset="0.18" stop-color="#F56934"/><stop offset="0.39" stop-color="#FB793F"/><stop offset="0.49" stop-color="#F46F36"/><stop offset="0.67" stop-color="#E25520"/><stop offset="0.88" stop-color="#C72F00"/></linearGradient><radialGradient id="a" cx="0" cy="0" r="1" gradientTransform="rotate(-11.342 488.714 -339.829)scale(76.1389 69.3737)" gradientUnits="userSpaceOnUse"><stop offset="0.37" stop-color="#729EB1"/><stop offset="1" stop-color="#729EB1"/></radialGradient><radialGradient id="u" cx="0" cy="0" r="1" gradientTransform="matrix(34.57546 -9.90697 3.05389 10.65811 121.723 84.109)" gradientUnits="userSpaceOnUse"><stop stop-color="#4C93C4"/><stop offset="0.93" stop-color="#4C93C4"/></radialGradient><radialGradient id="v" cx="0" cy="0" r="1" gradientTransform="matrix(6.2617 0 0 5.65596 111.883 24.153)" gradientUnits="userSpaceOnUse"><stop offset="0.02" stop-color="#F3F8FB"/><stop offset="0.55" stop-color="#B8DDF6"/><stop offset="0.67" stop-color="#A9D3F0"/><stop offset="0.89" stop-color="#84BBE0"/><stop offset="1" stop-color="#70AED8"/></radialGradient><radialGradient id="w" cx="0" cy="0" r="1" gradientTransform="matrix(6.36374 0 0 5.74814 100.735 26.436)" gradientUnits="userSpaceOnUse"><stop stop-color="#9EE0FF"/><stop offset="0.48" stop-color="#65CEFF"/><stop offset="0.59" stop-color="#5DC4F4"/><stop offset="0.76" stop-color="#49ABD9"/><stop offset="0.99" stop-color="#2882AE"/><stop offset="1" stop-color="#2680AB"/></radialGradient><radialGradient id="C" cx="0" cy="0" r="1" gradientTransform="matrix(141.311 0 0 127.641 204.445 11.16)" gradientUnits="userSpaceOnUse"><stop stop-color="#FF9959"/><stop offset="0.04" stop-color="#FC8D50"/><stop offset="0.11" stop-color="#F56F3A"/><stop offset="0.15" stop-color="#F0592A"/><stop offset="0.16" stop-color="#EC5627"/><stop offset="0.17" stop-color="#D34215"/><stop offset="0.18" stop-color="#B52B00"/><stop offset="0.2" stop-color="#C02D00"/><stop offset="0.22" stop-color="#C72F00"/><stop offset="0.91" stop-color="#F0592A"/><stop offset="0.97" stop-color="#F0592A"/></radialGradient><radialGradient id="D" cx="0" cy="0" r="1" gradientTransform="rotate(-37.12 155.38 -149.474)scale(19.6911 5.28644)" gradientUnits="userSpaceOnUse"><stop stop-color="#C72F00"/><stop offset="1" stop-color="#C72F00"/></radialGradient><radialGradient id="E" cx="0" cy="0" r="1" gradientTransform="matrix(-52.00368 58.00588 -58.94963 -52.84978 167.712 113.522)" gradientUnits="userSpaceOnUse"><stop offset="0.81" stop-color="#F0592A"/><stop offset="0.83" stop-color="#F05D2D"/><stop offset="0.85" stop-color="#F26939"/><stop offset="0.87" stop-color="#F47D4C"/><stop offset="0.89" stop-color="#F89968"/><stop offset="0.91" stop-color="#FCBD8A"/><stop offset="0.92" stop-color="#FDC08D"/><stop offset="0.97" stop-color="#FB935C"/><stop offset="1" stop-color="#FB793F"/></radialGradient></defs></svg>